<svg id="stamped" xmlns="http://www.w3.org/2000/svg" width="30.081" height="30.081" viewBox="0 0 30.081 30.081">
  <path id="Caminho_97" data-name="Caminho 97" d="M20.83,22.907H17.07a.94.94,0,0,1-.94-.94V20.142a1.776,1.776,0,0,0-.558-1.192,4.654,4.654,0,0,1-1.245-4.109A4.7,4.7,0,0,1,21.969,12.1a4.687,4.687,0,0,1,1.681,3.6,4.633,4.633,0,0,1-1.394,3.321,1.473,1.473,0,0,0-.486,1.013v1.933a.94.94,0,0,1-.94.939Z" transform="translate(3.611 2.787)" fill="#fff"/>
  <path id="Caminho_98" data-name="Caminho 98" d="M26.1,25.2H12.94a.94.94,0,0,1-.94-.94v-2.34a2.2,2.2,0,0,1,1.921-2.176l3.916-.49,3.25-.008,4.032.5a2.2,2.2,0,0,1,1.921,2.177v2.34a.94.94,0,0,1-.94.94Z" transform="translate(3.04 4.877)" fill="#fff"/>
  <path id="Caminho_99" data-name="Caminho 99" d="M14.34,2.507H12.962a3.454,3.454,0,0,0-6.643,0H4.94a.947.947,0,0,0-.94.94v1.88A2.2,2.2,0,0,0,6.193,7.52h6.894A2.2,2.2,0,0,0,15.28,5.327V3.447A.947.947,0,0,0,14.34,2.507Z" transform="translate(1.013)" fill="#fff"/>
  <path id="Caminho_100" data-name="Caminho 100" d="M17.86,3h-.313V4.567A3.445,3.445,0,0,1,14.1,8.013H7.207A3.445,3.445,0,0,1,3.76,4.567V3H3.447A3.445,3.445,0,0,0,0,6.447V22.114a3.445,3.445,0,0,0,3.447,3.447h9.112a4.709,4.709,0,0,1,3.823-4.136,5.8,5.8,0,0,1-.451-.877H4.7a.94.94,0,0,1,0-1.88H15.416a7.166,7.166,0,0,1,.038-2.193H4.7a.94.94,0,1,1,0-1.88H16.081a7.271,7.271,0,0,1,5.189-3.961h.038V6.447A3.445,3.445,0,0,0,17.86,3Zm-1.253,9.4H4.7a.94.94,0,0,1,0-1.88H16.607a.94.94,0,0,1,0,1.88Z" transform="translate(0 0.76)" fill="#fff"/>
</svg>
