<svg id="shipping" xmlns="http://www.w3.org/2000/svg" width="30.04" height="30.04" viewBox="0 0 30.04 30.04">
  <path id="Caminho_101" data-name="Caminho 101" d="M13.769,13.939A.942.942,0,0,0,12.83,13H8.136v3.755a1.252,1.252,0,0,1-2.5,0V13H.939A.941.941,0,0,0,0,13.939V25.83a.941.941,0,0,0,.939.939H12.83a.942.942,0,0,0,.939-.939Z" transform="translate(0 3.272)" fill="#fff"/>
  <path id="Caminho_102" data-name="Caminho 102" d="M26.769,13.939A.942.942,0,0,0,25.83,13H21.136v3.755a1.252,1.252,0,0,1-2.5,0V13H13.939a.941.941,0,0,0-.939.939V25.83a.941.941,0,0,0,.939.939H25.83a.942.942,0,0,0,.939-.939Z" transform="translate(3.272 3.272)" fill="#fff"/>
  <path id="Caminho_103" data-name="Caminho 103" d="M20.269.939A.942.942,0,0,0,19.33,0H14.636V3.755a1.252,1.252,0,0,1-2.5,0V0H7.439A.942.942,0,0,0,6.5.939V12.83a.941.941,0,0,0,.939.939H19.33a.942.942,0,0,0,.939-.939Z" transform="translate(1.636)" fill="#fff"/>
</svg>
