<svg xmlns="http://www.w3.org/2000/svg" width="36.464" height="30.04" viewBox="0 0 36.464 30.04">
  <g id="Grupo_278" data-name="Grupo 278" transform="translate(-79.787 -443)">
    <path id="Caminho_194" data-name="Caminho 194" d="M26.382,32.953H19.449a1.734,1.734,0,0,1-1.733-1.733V27.855a3.274,3.274,0,0,0-1.028-2.2,8.58,8.58,0,0,1-2.295-7.575,8.665,8.665,0,0,1,14.09-5.056,8.642,8.642,0,0,1,3.1,6.641,8.542,8.542,0,0,1-2.57,6.124,2.716,2.716,0,0,0-.9,1.867v3.563a1.733,1.733,0,0,1-1.733,1.731Z" transform="translate(79.47 432)" fill="#fff"/>
    <path id="Caminho_193" data-name="Caminho 193" d="M38,30.227H13.733A1.734,1.734,0,0,1,12,28.494V24.179a4.048,4.048,0,0,1,3.543-4.012l7.219-.9,5.992-.014,7.434.915a4.051,4.051,0,0,1,3.543,4.014v4.314A1.734,1.734,0,0,1,38,30.227Z" transform="translate(76.52 442.814)" fill="#fff"/>
    <g id="Grupo_277" data-name="Grupo 277" transform="translate(-32.888 -36.517)">
      <path id="Caminho_196" data-name="Caminho 196" d="M20.346,22.03H16.862a.871.871,0,0,1-.871-.871V19.469a1.645,1.645,0,0,0-.517-1.1,4.311,4.311,0,0,1-1.153-3.806,4.354,4.354,0,0,1,7.079-2.54,4.342,4.342,0,0,1,1.557,3.337,4.292,4.292,0,0,1-1.291,3.077,1.365,1.365,0,0,0-.451.938v1.79A.871.871,0,0,1,20.346,22.03Z" transform="translate(101.038 471.946)" fill="#fff"/>
      <path id="Caminho_195" data-name="Caminho 195" d="M25.063,24.765H12.871A.871.871,0,0,1,12,23.894V21.727a2.034,2.034,0,0,1,1.78-2.016l3.627-.454,3.011-.007,3.735.46a2.035,2.035,0,0,1,1.78,2.017v2.168a.871.871,0,0,1-.871.871Z" transform="translate(100.675 473.275)" fill="#fff"/>
    </g>
  </g>
</svg>
